<svg version="1" xmlns="http://www.w3.org/2000/svg" width="933.333" height="933.333" viewBox="0 0 700.000000 700.000000"><path d="M134.9 35.2c-4.4 2.7-18 16.6-27.6 28.2-4.1 5-8.4 10.2-9.5 11.5-7 8.4-21.2 32.6-27.6 47.1-4.1 9.2-9.7 28.7-10.8 37-.3 2.5-.7 5.6-1 7-.5 3-.5 26.4 0 30.3.3 1.5.9 3.4 1.5 4 .5.7 1.3 3.5 1.7 6.2.8 5.9 4.3 16.1 9.2 26.5 7.5 16.2 17.2 26.6 41.7 45.2 11.8 8.9 22 17.3 26 21.3 9.4 9.4 17.7 22.5 21.9 34.5 2.3 6.5 5 19.2 5.5 25.2.1 1.9.6 1.8 10.6-2.2 8.1-3.2 11-4.1 18.5-5.9 4.7-1.1 10.5-2.2 13-2.6 12.9-1.7 26.1-3.4 31-4 3-.3 6.6-.8 8-1 1.4-.3 4.8-.7 7.5-1.1 8.9-.9 20.2-4.9 25.3-8.7 6-4.5 14.2-13.9 15.2-17.4 3.2-10.6-6.7-20.7-40-41.3-12.7-7.8-15.6-9.6-24.7-15.4-2.1-1.3-5.6-3.4-7.8-4.6-14.1-8.3-38.7-25.6-48-33.9-25.8-23.1-46.2-53.3-53.2-78.6-3.8-13.9-4-33.2-.4-52.2 2-10.5 8.1-29.7 13-40.8.5-1.1 1.1-2.7 1.4-3.5.3-.8 1.4-3.8 2.6-6.7 1.1-2.9 1.7-5.4 1.2-5.7-.4-.3-2.3.4-4.2 1.6z"/><path d="M618.8 61.7c-.8 1-3.5 5.2-5.8 9.3-14.5 25.1-47.5 43.6-115.7 64.9-71.5 22.4-80 25.4-97.9 34.6-14.8 7.6-21.8 12.7-31.9 22.9-15.9 16-25 32.1-44 77.6-16 38.2-21.4 48.3-31.7 58.2-7.9 7.6-24.5 16.1-35.5 18.2-6.1 1.1-20 3.4-24.3 4-2.5.3-5.4.8-6.5 1-1.1.2-4.7.7-8 1-3.3.4-6.7.9-7.5 1.1-.8.2-3.3.6-5.5 1-3.7.5-16.5 2.9-21 3.9-14.4 3.2-28.4 10.4-37.2 19.1-8.2 8.2-9.2 11.5-10.8 35-.5 8.2-.7 9.3-2.2 12.1-2 3.6-4.7 18.7-4 22.4 1.7 8.7 12 18.4 18.3 17.2 2.8-.5 2.8-.5.9-9.8-.6-2.7-.1-3.7 3.3-7.3 2.3-2.5 4.8-4.1 6.3-4.2 1.3 0 3.3-.2 4.4-.4 1-.2 5.8-.5 10.5-.6 10.5-.2 15.5-1.7 21.9-6.3 2.7-2 5.2-3.6 5.6-3.6.4 0 3.8 2.8 7.4 6.2 8.4 7.9 22.6 17.5 40.5 27.2 7.6 4.2 14.1 7.6 14.3 7.6.3 0 6.2 2.8 13.1 6.1 21.6 10.5 29.7 16.8 38.1 29.4 8 11.9 8.6 14.1 8.6 29-.1 25.1-7 36.8-26.8 46.2-5.7 2.7-11.1 3.5-22.8 3.6h-8.7l-1.7 4.1c-1 2.3-3.5 7.7-5.5 12.1-2.1 4.4-4 8.7-4.2 9.5-.7 1.9 1.9 7 3.5 7 .6 0 4.8-3.4 9.2-7.6 7.6-7.2 13-10.8 14.7-9.8 1.9 1.2.3 3.9-6.7 10.9-7.6 7.7-8.1 8.6-7.7 16.2.4 6.9 6.7 19.3 9.2 17.8.6-.3 1.7-2.2 2.5-4.1.8-1.9 3.5-5.9 6-8.8 2.5-2.9 5-6.7 5.6-8.4 1-3 3.9-4.9 5.7-3.8 1.2.7.8 6.9-1.3 17.6-.2.9.5 3 1.6 4.6 1.2 1.9 1.9 4.7 1.9 8.1 0 3.9.4 5.3 1.4 5.3 2.4 0 7.2-4.7 9.5-9.2 1.2-2.4 3-5.9 4.2-7.8 1.7-3 2-4.6 1.5-10.8-.3-4-.8-7.7-1.1-8.1-.2-.5-.7-3.4-.9-6.5-.3-4.4-.1-5.6 1-5.6 2.9 0 11.3 5.1 15.7 9.5l4.6 4.6 2.1-2.1c2.5-2.5 2.5-6.2.1-11.5-1.7-3.9-7.4-10.5-9-10.5-.5 0-2-.9-3.5-2.1-2.1-1.7-2.4-2.4-1.6-4 .6-1 1.6-1.9 2.1-1.9 1.9 0 14.1-6.1 19.9-9.9 8.6-5.6 22.3-19.4 32.8-33.1 13.9-18.2 19.8-23 30.1-24.6 15.2-2.4 70.2 21.8 112.1 49.4 28.2 18.6 67.5 47.2 91.4 66.6 12.2 9.9 14.6 11.6 16.7 11.6 2.2 0 4.9-5.8 4.9-10.4 0-7.6-1.7-9.5-16.1-18.1-48.5-28.7-73.3-50.7-103.6-92-5.7-7.7-10.7-14.5-11.3-15.2-.5-.7-1-1.5-1-1.8 0-.3-1.5-2.6-3.4-5.2-1.8-2.7-7.2-11.4-12-19.6-12.2-20.8-17.6-29.4-24.2-38.4-15.9-21.5-31.1-37.2-37.7-38.9-3.2-.7-3.2-.5.3-18.4 1-5.2 2.1-11.3 2.5-13.5.3-2.2 1.7-10.5 3-18.5 3.3-19.4 3.2-18.5 4.5-27 1.4-8.7 1.1-7.1 4.5-22.8 1.4-6.8 3.6-15.3 4.7-19 1.2-3.7 2.3-7.3 2.4-8.1.6-3.3 11.7-24.1 16.1-30.2 10.8-14.9 27.8-29.7 47.8-41.6 1.1-.6 5.6-3.3 10-5.9 41.1-24 62.9-42 76.8-63.4 5.2-8.1 15.1-28.4 18-37 5-14.7 6.2-20 8.7-37.5 1.2-8.7 1.2-10.5.2-10.5-.5 0-1.6.8-2.4 1.7z"/><path d="M297.6 500.8c-.6 1-1.4 5-2.2 11.2-1.9 15-9.6 29.7-21.3 40.7-3.6 3.5-6.9 6.3-7.3 6.3-.3 0-1.3.6-2 1.3-.7.7-3.1 2.1-5.3 3.1-4 1.9-4.5 1.9-18.5-1-8-1.6-18.1-1.6-22.5.1-5.7 2.1-7.7 5.1-8 11.6-.3 6.2.7 6.8 7.2 3.8 8.7-4 12.3-2.3 5.6 2.8-2.1 1.5-4.3 3.5-5 4.3-3.7 4.7-3.9 29-.2 29 .5 0 2-1.7 3.4-3.9 1.4-2.1 4.7-5.3 7.3-7.1 5.5-3.9 9.5-8 12.8-13.2 2.3-3.6 4.2-5.4 4.9-4.6.3.2.7 2.2 1.1 4.4 1.6 10 5.1 9.9 11.3-.4 4-6.8 4.6-7.3 7-6.8 1.4.4 5.3.9 8.6 1.2 5.1.5 6.3.3 7.8-1.3 1.6-1.9 1.6-2.1-1.3-6.1-1.6-2.3-3-4.6-3-5.1 0-1.8 10.1-4.2 20.8-5 10.3-.8 14.8-2 16.5-4.5 1.8-2.7 2.8-9.4 2.7-19.3 0-9.7-.5-14.6-2.5-23.8-1-4.7-5.7-12.5-9-15-3.4-2.5-8.1-3.9-8.9-2.7zM447 540.9c0 1.4 3.6 3.7 18 11.6 35.9 19.7 58.7 40.1 69.5 62.1 7.2 14.9 8.1 20.4 4.9 30.5-3 9.5-3 10.7.2 11.5 2.6.7 37.7-.2 44.9-1.1 12.6-1.6 21.1-3.9 21.9-6.1 1.3-3.3-22.1-23.8-61-53.5-16.1-12.2-20.7-15.4-28.9-19.8-3.3-1.8-6.7-3.9-7.5-4.6-2.9-2.5-18.8-11.4-37.2-20.8-18.3-9.3-24.8-11.9-24.8-9.8z"/></svg>