<?xml version="1.0" encoding="UTF-8" standalone="no"?>
<!DOCTYPE svg PUBLIC "-//W3C//DTD SVG 1.1//EN" "http://www.w3.org/Graphics/SVG/1.1/DTD/svg11.dtd">
<svg width="100%" height="100%" viewBox="0 0 1100 808" version="1.1" xmlns="http://www.w3.org/2000/svg" xmlns:xlink="http://www.w3.org/1999/xlink" xml:space="preserve" xmlns:serif="http://www.serif.com/" style="fill-rule:evenodd;clip-rule:evenodd;stroke-linejoin:round;stroke-miterlimit:1.41421;">
    <g transform="matrix(4.16667,0,0,4.16667,919.058,285.225)">
        <path d="M0,56.857C-3.415,64.334 -13.959,68.251 -13.959,68.251C-26.939,96.565 -55.49,116.257 -88.666,116.257C-122.747,116.257 -151.992,95.518 -164.448,65.97L-143.192,65.97C-144.054,54.211 -144.606,41.082 -143.632,33.348L-155.786,50.789C-155.786,50.789 -163.715,37.775 -150.705,29.789L-175.889,32.003C-175.889,32.003 -165.024,15.407 -149.337,22.632L-161.947,6.661C-161.947,6.661 -144.101,2.969 -140.893,21.499C-140.893,21.499 -128.377,6.607 -112.293,17.685L-127.092,23.685C-127.092,23.685 -114.554,23.082 -111.559,36.978L-133.266,30.243C-133.266,30.243 -116.079,42.827 -123.299,56.926L-139.902,34.52C-140.096,40.025 -140.238,52.504 -138.417,65.97L-128.639,65.97C-128.639,65.97 -107,67.398 -99.868,41.567L-77.473,41.567C-75.028,50.415 -70.875,56.014 -66.482,59.62L-41.768,12.613L-25.812,34.449L-15.173,26.05L0,56.857ZM-90.595,-39.76C-58.741,-39.76 -31.568,-22.391 -20.589,2.106L-53.584,2.106C-75.436,2.106 -79.736,15.905 -79.814,26.531L-97.526,26.531C-97.605,15.905 -101.906,2.106 -123.757,2.106L-160.617,2.106C-149.637,-22.391 -122.455,-39.76 -90.595,-39.76M-10.232,-30.29C-24.01,-52.81 -53.905,-68.454 -88.666,-68.454C-123.436,-68.454 -153.331,-52.81 -167.112,-30.29L-220.574,-30.29L-220.574,121.273L-158.222,121.273C-159.269,119.183 -160.118,116.972 -160.813,114.66L-214.023,114.66L-214.023,-23.677L-170.599,-23.677C-173.562,-17.027 -175.244,-9.927 -175.244,-2.516C-175.244,-0.935 -175.146,0.622 -175.008,2.167C-178.856,2.573 -199.34,6.047 -191.827,34.048L-188.301,50.647C-188.301,50.647 -184.666,61.998 -174.382,65.147C-161.65,100.212 -128.133,125.311 -88.666,125.311C-50.392,125.311 -17.771,101.666 -4.226,68.251C3.398,68.251 8.689,56.634 8.689,56.634C10.582,52.514 10.96,50.647 10.96,50.647L14.483,34.048C21.982,6.085 1.571,2.58 -2.326,2.167C-2.182,0.622 -2.097,-0.94 -2.097,-2.516C-2.097,-9.927 -3.783,-17.027 -6.742,-23.677L36.679,-23.677L36.679,114.66L-18.516,114.66C-20.136,116.887 -21.822,119.072 -23.488,121.273L43.233,121.273L43.233,-30.29L-10.232,-30.29Z" style="fill:rgb(44,130,196);fill-rule:nonzero;"/>
    </g>
</svg>
