<?xml version="1.0" encoding="UTF-8" standalone="no"?>
<!DOCTYPE svg PUBLIC "-//W3C//DTD SVG 1.1//EN" "http://www.w3.org/Graphics/SVG/1.1/DTD/svg11.dtd">
<svg width="100%" height="100%" viewBox="0 0 2101 441" version="1.1" xmlns="http://www.w3.org/2000/svg" xmlns:xlink="http://www.w3.org/1999/xlink" xml:space="preserve" xmlns:serif="http://www.serif.com/" style="fill-rule:evenodd;clip-rule:evenodd;stroke-linejoin:round;stroke-miterlimit:1.41421;">
    <g transform="matrix(0,312.758,312.758,0,175.821,117.55)">
        <path d="M-0.376,-0.562L0.991,-0.562C1.023,-0.562 1.032,-0.547 1.032,-0.517L1.032,0.562C1.032,0.562 0.806,0.525 0.806,0.308L0.806,-0.336L-0.376,-0.336C-0.376,-0.412 -0.376,-0.562 -0.376,-0.562Z" style="fill:url(#_Linear1);fill-rule:nonzero;"/>
    </g>
    <g transform="matrix(0,312.758,312.758,0,909.207,117.55)">
        <path d="M-0.373,-0.504L1.032,-0.504L1.032,-0.28L0.275,-0.28C0.267,-0.28 0.263,-0.276 0.263,-0.268L0.263,0.268C0.263,0.276 0.267,0.28 0.275,0.28L1.032,0.28L1.032,0.504L0.275,0.504C0.21,0.504 0.155,0.481 0.108,0.434C0.062,0.387 0.039,0.332 0.039,0.268L0.039,-0.28L-0.373,-0.28L-0.373,-0.504Z" style="fill:url(#_Linear2);fill-rule:nonzero;"/>
    </g>
    <g transform="matrix(0,312.758,312.758,0,1273.85,117.55)">
        <path d="M0.039,-0.462C0.039,-0.49 0.059,-0.504 0.079,-0.504L1.032,-0.504L1.032,-0.28L0.275,-0.28C0.267,-0.28 0.263,-0.276 0.263,-0.268L0.263,0.268C0.263,0.276 0.267,0.28 0.275,0.28L1.032,0.28L1.032,0.504L0.275,0.504C0.21,0.504 0.155,0.481 0.108,0.435C0.062,0.389 0.039,0.333 0.039,0.268L0.039,-0.462Z" style="fill:url(#_Linear3);fill-rule:nonzero;"/>
    </g>
    <g transform="matrix(0,312.758,312.758,0,1629.78,117.55)">
        <path d="M0.039,-0.494C0.039,-0.494 0.263,-0.449 0.263,-0.261L0.263,0.276C0.263,0.284 0.267,0.288 0.275,0.288L0.423,0.288L0.423,-0.273C0.423,-0.504 0.625,-0.497 0.625,-0.497L0.796,-0.497C0.861,-0.497 0.917,-0.474 0.963,-0.428C1.009,-0.381 1.032,-0.326 1.032,-0.261L1.032,0.512L0.275,0.512C0.21,0.512 0.155,0.489 0.108,0.443C0.062,0.396 0.039,0.341 0.039,0.276L0.039,-0.494ZM0.796,-0.273L0.639,-0.273L0.639,0.288L0.808,0.288L0.808,-0.261C0.808,-0.269 0.804,-0.273 0.796,-0.273Z" style="fill:url(#_Linear4);fill-rule:nonzero;"/>
    </g>
    <g transform="matrix(0,312.758,312.758,0,1968.71,117.55)">
        <path d="M0.039,-0.185C0.039,-0.25 0.062,-0.305 0.108,-0.352C0.155,-0.398 0.21,-0.421 0.275,-0.421L1.032,-0.421L1.032,-0.197L0.275,-0.197C0.267,-0.197 0.263,-0.193 0.263,-0.185L0.263,0.203C0.263,0.412 0.039,0.421 0.039,0.421L0.039,-0.185Z" style="fill:url(#_Linear5);fill-rule:nonzero;"/>
    </g>
    <g transform="matrix(0,-260.584,-260.584,0,499.241,421.554)">
        <path d="M0.874,0.863C0.378,0.863 -0.023,0.47 -0.023,0C-0.023,-0.47 0.378,-0.863 0.874,-0.863C0.904,-0.863 0.942,-0.863 0.964,-0.846C0.511,-0.803 0.194,-0.441 0.194,0C0.194,0.441 0.511,0.803 0.964,0.846C0.942,0.863 0.904,0.863 0.874,0.863Z" style="fill:url(#_Linear6);fill-rule:nonzero;"/>
    </g>
    <defs>
        <linearGradient id="_Linear1" x1="0" y1="0" x2="1" y2="0" gradientUnits="userSpaceOnUse" gradientTransform="matrix(1,0,0,-1,0,-1.20703e-05)"><stop offset="0" style="stop-color:rgb(180,84,38);stop-opacity:1"/><stop offset="1" style="stop-color:rgb(215,124,40);stop-opacity:1"/></linearGradient>
        <linearGradient id="_Linear2" x1="0" y1="0" x2="1" y2="0" gradientUnits="userSpaceOnUse" gradientTransform="matrix(1,0,0,-1,0,-5.55296e-06)"><stop offset="0" style="stop-color:rgb(180,84,38);stop-opacity:1"/><stop offset="1" style="stop-color:rgb(215,124,40);stop-opacity:1"/></linearGradient>
        <linearGradient id="_Linear3" x1="0" y1="0" x2="1" y2="0" gradientUnits="userSpaceOnUse" gradientTransform="matrix(1,0,0,-1,0,5.50714e-06)"><stop offset="0" style="stop-color:rgb(180,84,38);stop-opacity:1"/><stop offset="1" style="stop-color:rgb(215,124,40);stop-opacity:1"/></linearGradient>
        <linearGradient id="_Linear4" x1="0" y1="0" x2="1" y2="0" gradientUnits="userSpaceOnUse" gradientTransform="matrix(1,0,0,-1,0,0.00745478)"><stop offset="0" style="stop-color:rgb(180,84,38);stop-opacity:1"/><stop offset="1" style="stop-color:rgb(215,124,40);stop-opacity:1"/></linearGradient>
        <linearGradient id="_Linear5" x1="0" y1="0" x2="1" y2="0" gradientUnits="userSpaceOnUse" gradientTransform="matrix(1,0,0,-1,0,-7.19011e-06)"><stop offset="0" style="stop-color:rgb(180,84,38);stop-opacity:1"/><stop offset="1" style="stop-color:rgb(215,124,40);stop-opacity:1"/></linearGradient>
        <linearGradient id="_Linear6" x1="0" y1="0" x2="1" y2="0" gradientUnits="userSpaceOnUse" gradientTransform="matrix(1,0,0,-1,0,3.74987e-06)"><stop offset="0" style="stop-color:white;stop-opacity:1"/><stop offset="1" style="stop-color:rgb(211,210,210);stop-opacity:1"/></linearGradient>
    </defs>
</svg>
